<?xml version="1.0" standalone="no"?>
<!DOCTYPE svg PUBLIC "-//W3C//DTD SVG 20010904//EN"
 "http://www.w3.org/TR/2001/REC-SVG-20010904/DTD/svg10.dtd">
<svg version="1.0" xmlns="http://www.w3.org/2000/svg"
 width="300.000000pt" height="300.000000pt" viewBox="0 0 300.000000 300.000000"
 preserveAspectRatio="xMidYMid meet">
<metadata>
 by potrace 1.10, written by Peter Selinger 2001-2011
</metadata>
<g transform="translate(0.000000,300.000000) scale(0.050000,-0.050000)"
fill="#4a47ff" stroke="none">
<path d="M3204 4890 c-1201 -186 -1925 -1363 -1543 -2510 43 -130 93 -240 108
-240 84 0 811 285 1028 403 84 45 194 104 243 130 52 27 185 63 317 86 392 68
416 109 443 751 25 602 100 798 350 917 138 66 183 63 260 -20 84 -92 86 -107
18 -107 -47 0 -50 -4 -25 -33 25 -31 18 -33 -84 -22 -139 14 -167 -2 -212
-120 -44 -114 -49 -618 -8 -966 38 -332 -50 -606 -277 -861 l-97 -109 -14
-391 -15 -392 44 -12 c63 -16 30 -54 -46 -54 -101 1 -116 22 -139 199 -23 185
-44 188 -63 7 -12 -112 -10 -126 28 -146 53 -28 33 -60 -36 -60 -97 1 -107 22
-125 243 -17 230 -36 337 -59 337 -8 0 -47 -14 -87 -30 -39 -17 -101 -30 -137
-30 -97 -1 -109 -17 -123 -160 -7 -71 -18 -157 -25 -191 -10 -54 -4 -64 61
-95 97 -46 73 -82 -44 -68 -105 11 -119 28 -136 169 -16 124 -34 132 -75 30
-32 -81 -16 -145 37 -145 16 0 29 -13 29 -30 0 -43 -147 -40 -191 4 -30 30
-33 64 -24 257 17 333 -29 382 -313 330 -923 -166 -1266 -131 -1551 162 -70
72 -65 47 13 -57 165 -224 619 -337 1090 -272 l133 19 187 -182 c1101 -1069
2939 -466 3207 1052 221 1257 -893 2402 -2147 2207z"/>
</g>
</svg>
