<?xml version="1.0" encoding="UTF-8" standalone="no"?>
<svg
   version="1.0"
   width="208.55901pt"
   height="198.02901pt"
   viewBox="24 33 205.03234 194.68042"
   preserveAspectRatio="xMidYMid"
   id="svg20"
   sodipodi:docname="logo2.svg"
   inkscape:version="1.2.2 (732a01da63, 2022-12-09)"
   xmlns:inkscape="http://www.inkscape.org/namespaces/inkscape"
   xmlns:sodipodi="http://sodipodi.sourceforge.net/DTD/sodipodi-0.dtd"
   xmlns="http://www.w3.org/2000/svg"
   xmlns:svg="http://www.w3.org/2000/svg">
  <defs
     id="defs24">
    <clipPath
       clipPathUnits="userSpaceOnUse"
       id="clipPath615">
      <rect
         style="fill:none;stroke-width:15"
         id="rect617"
         width="4086.0215"
         height="4078.8533"
         x="1426.5233"
         y="-5053.7632"
         ry="3.5842295"
         transform="scale(1,-1)" />
    </clipPath>
  </defs>
  <sodipodi:namedview
     id="namedview22"
     pagecolor="#ffffff"
     bordercolor="#000000"
     borderopacity="0.25"
     inkscape:showpageshadow="2"
     inkscape:pageopacity="0.0"
     inkscape:pagecheckerboard="true"
     inkscape:deskcolor="#d1d1d1"
     inkscape:document-units="pt"
     showgrid="false"
     showguides="true"
     inkscape:lockguides="false"
     inkscape:zoom="2.0925"
     inkscape:cx="135.72282"
     inkscape:cy="141.93548"
     inkscape:window-width="1920"
     inkscape:window-height="1017"
     inkscape:window-x="1432"
     inkscape:window-y="94"
     inkscape:window-maximized="1"
     inkscape:current-layer="svg20" />
  <metadata
     id="metadata14">
 by potrace 1.10, written by Peter Selinger 2001-2011
</metadata>
  <g
     transform="matrix(0.05,0,0,-0.05,-46.594979,280.28673)"
     fill="#4a47ff"
     stroke="none"
     id="g18"
     clip-path="none">
    <path
       d="M 3204,4890 C 2003,4704 1279,3527 1661,2380 c 43,-130 93,-240 108,-240 84,0 811,285 1028,403 84,45 194,104 243,130 52,27 185,63 317,86 392,68 416,109 443,751 25,602 100,798 350,917 138,66 183,63 260,-20 84,-92 86,-107 18,-107 -47,0 -50,-4 -25,-33 25,-31 18,-33 -84,-22 -139,14 -167,-2 -212,-120 -44,-114 -49,-618 -8,-966 38,-332 -50,-606 -277,-861 l -97,-109 -14,-391 -15,-392 44,-12 c 63,-16 30,-54 -46,-54 -101,1 -116,22 -139,199 -23,185 -44,188 -63,7 -12,-112 -10,-126 28,-146 53,-28 33,-60 -36,-60 -97,1 -107,22 -125,243 -17,230 -36,337 -59,337 -8,0 -47,-14 -87,-30 -39,-17 -101,-30 -137,-30 -97,-1 -109,-17 -123,-160 -7,-71 -18,-157 -25,-191 -10,-54 -4,-64 61,-95 97,-46 73,-82 -44,-68 -105,11 -119,28 -136,169 -16,124 -34,132 -75,30 -32,-81 -16,-145 37,-145 16,0 29,-13 29,-30 0,-43 -147,-40 -191,4 -30,30 -33,64 -24,257 17,333 -29,382 -313,330 -923,-166 -1266,-131 -1551,162 -70,72 -65,47 13,-57 165,-224 619,-337 1090,-272 l 133,19 187,-182 C 3245,562 5083,1165 5351,2683 5572,3940 4458,5085 3204,4890 Z"
       id="path16"
       clip-path="url(#clipPath615)" />
  </g>
  <rect
     style="fill:none;stroke-width:0.75"
     id="rect468"
     width="187.09677"
     height="222.22221"
     x="32.974915"
     y="11.827955" />
  <rect
     style="fill:none;stroke-width:0.75"
     id="rect470"
     width="68.100357"
     height="12.18638"
     x="54.121872"
     y="5.3763428" />
  <rect
     style="fill:none;stroke-width:0.75"
     id="rect472"
     width="6.0931902"
     height="0.71684587"
     x="47.311829"
     y="16.487455" />
  <rect
     style="fill:none;stroke-width:0.75"
     id="rect474"
     width="6.0931902"
     height="0.71684587"
     x="229.7491"
     y="28.315413" />
  <rect
     style="fill:none;stroke-width:0.75"
     id="rect476"
     width="41.577061"
     height="6.0931902"
     x="185.6631"
     y="16.487455" />
  <rect
     style="fill:none;stroke-width:0.75"
     id="rect478"
     width="69.175652"
     height="241.21863"
     x="162.3656"
     y="4.6594982"
     ry="6.8100357" />
  <rect
     style="fill:none;stroke-width:0.75"
     id="rect480"
     width="218.638"
     height="36.559143"
     x="0"
     y="22.222219"
     ry="6.8100357" />
  <rect
     style="fill:none;stroke-width:0.75"
     id="rect482"
     width="220.43011"
     height="217.20428"
     x="15.412189"
     y="30.824373"
     ry="6.8100357" />
  <rect
     style="fill:none;stroke-width:0.75"
     id="rect484"
     width="6.8100357"
     height="0.35842294"
     x="15.770615"
     y="30.824373"
     ry="0.17921147" />
  <rect
     style="fill:none;stroke-width:0.75"
     id="rect486"
     width="208.24371"
     height="210.03584"
     x="22.58065"
     y="29.39068"
     ry="0.17921147" />
  <rect
     style="fill:none;stroke-width:0.75"
     id="rect488"
     width="4.301075"
     height="1.4336917"
     x="228.67384"
     y="238.35124"
     ry="0.17921147" />
  <rect
     style="fill:none;stroke-width:0.75"
     id="rect490"
     width="7.5268812"
     height="26.523296"
     x="224.37276"
     y="0"
     ry="0.17921147" />
  <rect
     style="fill:none;stroke-width:0.75"
     id="rect492"
     width="224.01434"
     height="234.05017"
     x="9.6774216"
     y="13.620071"
     ry="0.17921147" />
  <rect
     style="fill:none;stroke-width:0.75"
     id="rect497"
     width="213.97849"
     height="210.39427"
     x="15.053768"
     y="31.54122"
     ry="0.17921147" />
  <rect
     style="fill:none;stroke-width:0.75"
     id="rect499"
     width="215.77063"
     height="204.65948"
     x="16.129036"
     y="34.408604"
     ry="0.17921147" />
  <rect
     style="fill:none;stroke-width:0.75"
     id="rect605"
     width="208.24373"
     height="166.66664"
     x="11.111122"
     y="28.315413"
     ry="0.17921147" />
  <rect
     style="fill:none;stroke-width:0.75"
     id="rect607"
     width="0.35842294"
     height="0.71684587"
     x="117.2043"
     y="112.5448"
     ry="0.17921147" />
  <rect
     style="fill:none;stroke-width:0.75"
     id="rect609"
     width="227.59857"
     height="212.5448"
     x="8.9605789"
     y="24.731184"
     ry="0.17921147" />
  <rect
     style="fill:none;stroke-width:0.75"
     id="rect611"
     width="7.1684589"
     height="6.0931902"
     x="122.22221"
     y="127.95699"
     ry="0.17921147" />
</svg>
